<svg width="711" height="582" viewBox="0 0 711 582" fill="none" xmlns="http://www.w3.org/2000/svg">
<path d="M158.024 110.169C163.843 95.6561 171.375 81.7724 182.509 70.7946C268.391 -13.8807 434.144 48.6474 439.464 88.6564C445.119 131.194 475.282 235.026 378.007 280.578C280.731 326.13 241.48 367.593 167.243 330.484C93.5094 293.627 137.138 162.267 158.024 110.169Z" fill="#003647" fill-opacity="0.3"/>
<path d="M157.482 112.12C163.403 97.6408 171.05 83.744 181.891 72.4662C283.181 -32.9134 484.498 42.4929 490.896 90.5651C497.629 141.158 533.537 264.652 417.733 318.831C301.929 373.009 255.2 422.324 166.824 378.188C77.0729 333.365 133.388 171.037 157.482 112.12Z" fill="#003647" fill-opacity="0.3"/>
<path d="M153.499 119.142C159.5 104.691 167.15 90.9612 177.771 79.4704C294.396 -46.6982 531.311 41.5905 538.787 97.7257C546.597 156.374 588.25 299.531 453.918 362.335C319.585 425.14 265.38 482.306 162.863 431.143C56.8782 378.249 126.485 184.192 153.499 119.142Z" fill="#003647" fill-opacity="0.3"/>
<path d="M1 104.909L223.859 1L325.682 174.182L558.147 104.909L708 255" stroke="white" stroke-opacity="0.6"/>
<path d="M1 149.845L210.434 49L319.954 239.165L548.602 149.845L710 316" stroke="white" stroke-opacity="0.4"/>
<path d="M1 196.636L195.062 89L318.033 296.584L535.152 196.636L710 385" stroke="white" stroke-opacity="0.2"/>
<path d="M18 409L198 301L326 517L417 455" stroke="white" stroke-opacity="0.4"/>
<path d="M18 451L187 355L317 581L431 499" stroke="white" stroke-opacity="0.6"/>
</svg>
