<svg width="780" height="692" viewBox="0 0 780 692" fill="none" xmlns="http://www.w3.org/2000/svg">
<path d="M612.991 160.076C606.728 145.429 598.708 131.5 587.544 120.136C475.676 6.26419 251.224 86.9557 244.113 138.338C236.654 192.242 196.87 323.818 325.173 381.542C453.477 439.266 505.249 491.809 603.164 444.784C703.258 396.713 639.379 221.791 612.991 160.076Z" fill="#003647" fill-opacity="0.3"/>
<path d="M613.614 162.433C607.259 147.818 599.202 133.99 588.277 122.387C456.216 -17.8578 184.808 79.1579 176.276 140.757C167.396 204.868 120.034 361.361 272.776 430.017C425.518 498.672 487.151 561.164 603.717 505.234C725.224 446.934 643.758 231.759 613.614 162.433Z" fill="#003647" fill-opacity="0.3"/>
<path d="M618.918 171.525C612.495 156.934 604.395 143.131 593.646 131.358C441.457 -35.3276 123.063 78.0155 113.109 149.831C102.808 224.15 47.8677 405.56 225.049 485.146C402.23 564.732 473.724 637.175 608.941 572.34C751.96 503.764 652.559 247.95 618.918 171.525Z" fill="#003647" fill-opacity="0.3"/>
<path d="M1 109L233 1L339 181L581 109L737 265" stroke="white" stroke-opacity="0.6"/>
<path d="M1 156L219 51L333 249L571 156L739 329" stroke="white" stroke-opacity="0.4"/>
<path d="M1 205L203 93L331 309L557 205L739 401" stroke="white" stroke-opacity="0.2"/>
<path d="M366 519L546 411L674 627L765 565" stroke="white" stroke-opacity="0.4"/>
<path d="M366 561L535 465L665 691L779 609" stroke="white" stroke-opacity="0.6"/>
</svg>
